<svg width="47" height="53" viewBox="0 0 47 53" fill="none" xmlns="http://www.w3.org/2000/svg">
<g id="Frame">
<path id="Vector" d="M43.3137 41.1143L40.6956 16.2706C40.6319 15.6635 40.372 15.1042 39.9655 14.6997C39.5591 14.2952 39.0346 14.0739 38.4925 14.0781H31.5784V13.25C31.5784 10.834 30.7273 8.51704 29.2123 6.8087C27.6974 5.10036 25.6427 4.14063 23.5002 4.14062C21.3578 4.14063 19.3031 5.10036 17.7881 6.8087C16.2732 8.51704 15.4221 10.834 15.4221 13.25V14.0781H8.50612C7.96402 14.0739 7.43957 14.2952 7.0331 14.6997C6.62663 15.1042 6.36669 15.6635 6.303 16.2706L3.68495 41.1143C3.6488 41.4615 3.67803 41.8134 3.77073 42.1469C3.86342 42.4805 4.0175 42.7883 4.22288 43.0501C4.43214 43.3153 4.68896 43.5274 4.97634 43.6723C5.26372 43.8172 5.57511 43.8916 5.88991 43.8906H41.1105C41.4247 43.891 41.7354 43.8163 42.0221 43.6714C42.3088 43.5265 42.5651 43.3148 42.7739 43.0501C42.9796 42.7884 43.134 42.4808 43.227 42.1472C43.32 41.8136 43.3496 41.4617 43.3137 41.1143ZM16.8909 13.25C16.8909 11.2733 17.5872 9.37758 18.8267 7.97984C20.0662 6.58211 21.7473 5.79687 23.5002 5.79687C25.2531 5.79687 26.9343 6.58211 28.1738 7.97984C29.4133 9.37758 30.1096 11.2733 30.1096 13.25V14.0781H16.8909V13.25ZM41.676 41.9507C41.6051 42.0407 41.518 42.1126 41.4205 42.1615C41.3229 42.2104 41.2173 42.2353 41.1105 42.2344H5.88991C5.78318 42.2353 5.67751 42.2104 5.57999 42.1615C5.48246 42.1126 5.39534 42.0407 5.32444 41.9507C5.25488 41.8652 5.20247 41.7638 5.17078 41.6535C5.1391 41.5431 5.12889 41.4263 5.14085 41.311L7.75706 16.4673C7.77787 16.2645 7.86434 16.0776 7.99987 15.9423C8.1354 15.8071 8.31045 15.733 8.49144 15.7344H15.4221V21.5312C15.4221 21.7509 15.4995 21.9615 15.6372 22.1168C15.7749 22.2721 15.9617 22.3594 16.1565 22.3594C16.3512 22.3594 16.538 22.2721 16.6758 22.1168C16.8135 21.9615 16.8909 21.7509 16.8909 21.5312V15.7344H30.1096V21.5312C30.1096 21.7509 30.187 21.9615 30.3247 22.1168C30.4624 22.2721 30.6492 22.3594 30.844 22.3594C31.0387 22.3594 31.2255 22.2721 31.3633 22.1168C31.501 21.9615 31.5784 21.7509 31.5784 21.5312V15.7344H38.4943C38.6769 15.7304 38.8542 15.8033 38.9917 15.9388C39.1291 16.0743 39.2169 16.2627 39.2379 16.4673L41.8541 41.311C41.8668 41.4258 41.8575 41.5423 41.8267 41.6527C41.796 41.7631 41.7446 41.8647 41.676 41.9507Z" fill="black"/>
</g>
</svg>
