<svg width="51" height="32" viewBox="0 0 51 32" fill="none" xmlns="http://www.w3.org/2000/svg">
<path id="Vector" d="M32.9366 16.4922L21.8496 23.4487C21.6416 23.5792 21.3594 23.6526 21.0652 23.6526C20.771 23.6526 20.4889 23.5792 20.2808 23.4487C20.0728 23.3182 19.9559 23.1411 19.9559 22.9565C19.9559 22.7719 20.0728 22.5949 20.2808 22.4643L29.4747 16.6957H1.1087C0.814651 16.6957 0.53265 16.6224 0.32473 16.4919C0.116809 16.3614 0 16.1845 0 16C0 15.8155 0.116809 15.6386 0.32473 15.5081C0.53265 15.3776 0.814651 15.3043 1.1087 15.3043H29.4747L20.2808 9.53565C20.0728 9.40512 19.9559 9.22808 19.9559 9.04348C19.9559 8.85888 20.0728 8.68184 20.2808 8.5513C20.4889 8.42077 20.771 8.34744 21.0652 8.34744C21.3594 8.34744 21.6416 8.42077 21.8496 8.5513L32.9366 15.5078C33.0397 15.5724 33.1214 15.6492 33.1772 15.7336C33.233 15.8181 33.2617 15.9086 33.2617 16C33.2617 16.0914 33.233 16.1819 33.1772 16.2664C33.1214 16.3508 33.0397 16.4276 32.9366 16.4922ZM47.6739 0H32.1522C31.8581 0 31.5761 0.0732919 31.3682 0.203752C31.1603 0.334212 31.0435 0.511154 31.0435 0.695652C31.0435 0.880151 31.1603 1.05709 31.3682 1.18755C31.5761 1.31801 31.8581 1.3913 32.1522 1.3913H47.6739C47.968 1.3913 48.25 1.4646 48.4579 1.59506C48.6658 1.72552 48.7826 1.90246 48.7826 2.08696V29.913C48.7826 30.0975 48.6658 30.2745 48.4579 30.4049C48.25 30.5354 47.968 30.6087 47.6739 30.6087H32.1522C31.8581 30.6087 31.5761 30.682 31.3682 30.8124C31.1603 30.9429 31.0435 31.1198 31.0435 31.3043C31.0435 31.4888 31.1603 31.6658 31.3682 31.7962C31.5761 31.9267 31.8581 32 32.1522 32H47.6739C48.556 32 49.402 31.7801 50.0258 31.3887C50.6496 30.9974 51 30.4665 51 29.913V2.08696C51 1.53346 50.6496 1.00264 50.0258 0.611255C49.402 0.219875 48.556 0 47.6739 0Z" fill="black"/>
</svg>
